<?xml version="1.0" standalone="no"?>
<!DOCTYPE svg PUBLIC "-//W3C//DTD SVG 20010904//EN"
 "http://www.w3.org/TR/2001/REC-SVG-20010904/DTD/svg10.dtd">
<svg version="1.0" xmlns="http://www.w3.org/2000/svg"
 width="225.000000pt" height="225.000000pt" viewBox="0 0 225.000000 225.000000"
 preserveAspectRatio="xMidYMid meet">
<metadata>
Created by potrace 1.16, written by Peter Selinger 2001-2019
</metadata>
<g transform="translate(0.000000,225.000000) scale(0.100000,-0.100000)"
fill="#000000" stroke="none">
<path d="M1128 2027 c3 -44 0 -72 -8 -82 -11 -13 -7 -15 21 -14 19 0 28 3 22
6 -17 6 -17 73 0 73 7 0 24 -18 37 -40 14 -22 33 -40 43 -40 17 0 16 4 -7 31
-29 35 -33 49 -11 49 19 0 37 34 29 54 -7 17 -26 23 -89 28 l-40 3 3 -68z m97
23 c0 -22 -5 -25 -37 -28 -34 -3 -38 -1 -38 21 0 32 9 39 45 35 25 -2 30 -7
30 -28z"/>
<path d="M970 2083 c-49 -5 -67 -12 -53 -21 16 -10 32 -129 19 -143 -8 -8 -6
-10 9 -6 11 3 41 8 67 12 35 4 49 11 53 26 4 11 4 23 1 26 -3 4 -6 1 -6 -6 0
-15 -67 -44 -86 -37 -8 3 -14 19 -14 36 0 22 5 30 18 30 10 0 23 -5 28 -10 7
-7 9 -1 6 21 -4 26 -6 29 -14 15 -5 -9 -18 -16 -28 -16 -16 0 -20 7 -20 30 0
28 2 30 38 30 21 0 44 -6 51 -12 11 -11 13 -10 7 5 -3 10 -6 21 -6 23 0 4 -8
4 -70 -3z"/>
<path d="M1353 2070 c-36 -14 -56 -55 -49 -95 8 -40 34 -60 88 -68 34 -5 37
-4 43 24 4 17 13 29 23 30 14 0 13 2 -3 9 -31 13 -45 12 -39 -5 8 -19 -13 -45
-36 -45 -46 0 -69 90 -31 124 26 24 72 17 87 -12 17 -34 24 -38 24 -11 0 17
-10 30 -29 42 -32 19 -45 20 -78 7z"/>
<path d="M831 2051 c-9 -6 -10 -11 -2 -15 6 -4 11 -35 11 -69 l0 -61 -45 44
c-24 24 -42 47 -39 52 6 9 -4 9 -27 0 -12 -5 -1 -20 48 -66 35 -32 66 -56 69
-53 7 6 11 177 4 177 -3 0 -11 -4 -19 -9z"/>
<path d="M1535 2020 c3 -5 -6 -32 -20 -60 -29 -57 -26 -82 11 -106 38 -25 69
-11 100 46 15 27 34 50 42 52 11 2 8 7 -11 15 -21 10 -25 10 -21 -1 3 -7 -7
-34 -22 -60 -23 -42 -30 -47 -57 -44 -45 5 -56 30 -32 75 11 21 28 45 37 55
17 17 17 18 -2 28 -24 13 -33 13 -25 0z"/>
<path d="M635 1956 c-11 -9 -15 -16 -9 -16 18 0 87 -107 79 -120 -6 -9 -2 -9
13 -1 27 14 37 31 19 31 -14 0 -69 77 -78 108 -3 10 -9 9 -24 -2z"/>
<path d="M1713 1928 c8 -23 -72 -121 -92 -113 -11 4 -10 0 4 -15 21 -23 37
-27 29 -6 -5 13 54 91 62 83 2 -2 -5 -30 -16 -62 -21 -60 -20 -75 2 -58 35 26
109 63 102 51 -16 -27 -60 -75 -73 -79 -9 -3 -6 -10 8 -23 19 -18 21 -18 21
-2 0 24 69 106 88 106 14 0 14 2 -1 17 -16 17 -20 16 -77 -15 -33 -19 -60 -31
-60 -29 0 3 10 31 22 62 l21 56 -23 22 c-17 17 -21 18 -17 5z"/>
<path d="M512 1871 c-46 -34 -59 -51 -40 -51 18 0 88 -84 88 -106 0 -16 2 -15
21 2 l21 19 -21 9 c-19 8 -38 42 -29 51 2 2 23 -1 47 -6 45 -10 81 -5 81 12 0
6 -5 7 -10 4 -6 -4 -29 -4 -51 0 -30 5 -38 10 -30 18 23 23 6 77 -24 77 -7 0
-30 -13 -53 -29z m66 -16 c2 -12 -8 -31 -21 -43 l-24 -23 -18 27 c-17 26 -17
27 6 45 30 23 53 20 57 -6z"/>
<path d="M1110 1760 c-8 -6 -49 -9 -90 -8 -66 2 -83 -1 -133 -26 -99 -50 -167
-121 -167 -174 0 -10 -7 -27 -16 -38 -14 -18 -15 -16 -11 29 6 62 -4 52 -18
-20 l-11 -56 -65 -18 c-35 -10 -94 -25 -131 -33 -36 -8 -81 -22 -100 -32 l-33
-17 25 -7 c14 -4 48 -17 75 -28 28 -11 73 -23 102 -27 53 -7 68 -18 97 -70 16
-28 17 -28 12 -5 -2 14 -7 34 -11 45 -6 19 0 22 71 32 43 6 83 17 88 25 8 10
45 13 142 14 l132 0 93 47 c102 51 120 55 143 31 30 -29 20 -59 -28 -84 -24
-12 -50 -19 -56 -15 -7 4 -24 -5 -41 -21 -21 -20 -40 -28 -67 -29 -20 0 -54
-7 -76 -14 -23 -8 -58 -11 -86 -8 -44 5 -47 4 -43 -14 3 -10 1 -19 -3 -20 -5
0 -43 -2 -84 -2 -69 -2 -80 -5 -116 -34 -22 -17 -46 -43 -54 -57 -16 -30 -27
-33 -33 -8 -2 9 -4 -16 -4 -57 0 -66 3 -79 33 -129 19 -30 36 -70 40 -88 7
-36 62 -106 70 -88 4 9 13 8 34 -3 17 -8 34 -12 40 -8 5 3 20 -1 32 -9 28 -20
57 -21 64 -3 7 20 91 -9 99 -34 3 -10 20 -30 37 -44 24 -20 37 -24 63 -19 29
5 37 1 66 -30 18 -20 36 -36 40 -36 4 0 -3 12 -17 27 -14 15 -22 33 -20 40 4
8 -3 13 -17 13 -12 0 -34 7 -49 14 -16 8 -28 11 -28 5 0 -17 -26 -9 -48 14
-30 32 -28 35 18 27 40 -7 56 5 23 17 -10 3 -31 15 -47 27 -25 17 -29 18 -23
3 9 -24 -3 -21 -43 8 -39 29 -48 32 -30 10 16 -19 9 -19 -37 0 -41 17 -56 19
-30 4 9 -5 17 -14 17 -19 0 -19 -29 -9 -74 25 -25 19 -43 28 -39 20 8 -21 -10
-18 -36 6 -23 22 -71 118 -71 141 1 7 16 -5 35 -27 27 -31 37 -37 44 -26 7 11
13 10 34 -4 15 -9 31 -15 38 -13 6 2 -11 18 -39 35 -41 25 -53 40 -70 84 l-21
54 0 -39 c-1 -32 -4 -37 -13 -28 -7 7 -13 30 -13 51 0 22 -3 37 -7 35 -5 -3
-8 -15 -8 -27 0 -15 -3 -18 -11 -10 -16 16 5 72 44 118 28 32 40 38 84 42 42
5 54 2 72 -16 29 -29 26 -43 -6 -39 -20 2 -28 8 -26 22 1 17 0 17 -15 3 -11
-11 -12 -20 -5 -29 6 -7 13 -25 17 -40 5 -23 3 -28 -13 -28 -11 0 -21 3 -24 8
-2 4 -2 1 0 -6 1 -8 3 -22 3 -32 0 -24 26 -50 49 -50 10 0 36 12 57 27 21 14
53 27 69 27 38 2 58 14 51 32 -7 18 31 19 85 2 42 -12 55 -34 14 -24 -18 5
-25 2 -25 -9 0 -11 -10 -15 -35 -15 -19 0 -35 -4 -35 -9 0 -16 -32 -22 -47 -9
-12 10 -17 9 -25 -5 -7 -13 -13 -15 -29 -7 -15 9 -19 7 -19 -6 0 -11 -6 -15
-20 -11 -23 6 -27 -8 -6 -20 14 -9 41 -54 38 -65 -3 -13 106 -89 173 -119 49
-22 77 -29 99 -25 23 4 54 -5 121 -35 108 -49 206 -89 217 -89 5 0 6 5 3 10
-9 14 4 13 60 -9 92 -34 92 -34 60 -7 -38 32 -21 33 50 2 56 -26 72 -21 33 8
l-23 17 25 -5 c14 -3 36 -9 50 -13 23 -6 24 -5 10 12 -12 14 -12 19 -2 23 9 3
6 13 -13 37 -30 40 -31 47 -8 38 12 -5 5 11 -21 46 -22 32 -31 51 -22 48 9 -4
16 -3 16 1 -1 21 -77 118 -85 110 -3 -3 4 -13 15 -23 21 -19 27 -45 11 -45
-16 0 -80 84 -69 91 6 4 6 9 1 12 -5 4 -8 19 -6 34 3 21 -2 35 -21 52 -25 24
-38 17 -14 -7 21 -21 -21 -26 -78 -8 -70 22 -77 36 -20 36 54 0 59 15 19 51
-15 13 -21 16 -14 6 20 -26 7 -31 -44 -17 -63 18 -56 36 14 33 7 -1 -5 16 -28
38 -22 21 -46 39 -53 39 -6 0 -3 -6 8 -14 31 -23 7 -38 -39 -24 -31 9 -37 16
-37 39 0 18 -6 28 -19 32 -14 3 -17 0 -14 -14 4 -15 0 -19 -23 -19 -36 0 -74
10 -74 19 0 14 72 44 107 44 22 0 61 -12 91 -27 31 -16 51 -21 50 -14 -2 7
-25 23 -53 37 -39 19 -45 26 -30 29 50 10 58 45 20 86 -14 15 -25 34 -25 43 0
11 -3 13 -12 5 -14 -11 -118 -11 -118 0 0 4 12 16 26 27 30 24 21 27 -16 6
-33 -19 -70 -19 -70 0 0 8 9 15 20 15 12 0 20 7 20 16 0 14 -7 15 -42 10 -53
-9 -126 -40 -155 -68 -20 -19 -23 -19 -45 -4 -31 22 -54 20 -79 -5 -24 -24
-40 -12 -32 25 5 20 5 20 -9 3 -13 -17 -15 -17 -36 6 -17 18 -23 37 -24 68 0
38 4 47 37 76 36 31 154 80 185 76 7 -1 26 5 42 13 30 16 58 18 58 6 0 -5 -10
-14 -22 -20 -18 -8 0 -10 77 -9 70 2 99 -1 98 -9 -1 -7 11 -11 30 -10 28 1 32
-2 32 -24 0 -19 -10 -30 -45 -49 -32 -16 -37 -21 -17 -17 31 7 37 -9 10 -31
-17 -14 -17 -14 1 -9 12 4 24 -2 38 -19 11 -14 26 -25 35 -25 12 0 13 3 4 14
-15 17 4 63 28 69 9 3 4 5 -11 6 -33 1 -35 11 -8 36 24 22 26 61 4 73 -14 8
-14 10 0 24 25 25 7 28 -45 7 -60 -23 -79 -24 -79 -4 0 19 -3 19 -51 -6 -22
-11 -45 -19 -51 -17 -5 2 6 10 26 18 20 7 36 20 36 27 0 15 -29 17 -50 3z
m-212 -311 c-2 -6 -8 -10 -13 -10 -5 0 -11 4 -13 10 -2 6 4 11 13 11 9 0 15
-5 13 -11z m-172 -94 c-11 -8 -26 -15 -33 -15 -7 0 -13 -4 -13 -10 0 -15 -119
-12 -201 5 -96 20 -101 28 -14 21 39 -4 102 -2 140 2 39 5 86 10 105 10 33 1
34 0 16 -13z m367 -119 c10 -26 -16 -36 -56 -24 -44 13 -47 25 -9 31 52 8 60
7 65 -7z m105 -29 c25 -20 13 -37 -26 -37 -46 0 -51 3 -44 35 4 21 8 24 31 19
14 -4 32 -11 39 -17z m-237 -6 c30 -18 30 -20 11 -30 -28 -15 -38 -14 -57 5
-12 12 -13 19 -4 30 14 18 12 18 50 -5z m328 -12 c29 -13 51 -28 51 -37 0 -24
-60 -6 -95 28 -35 36 -26 37 44 9z m-241 -25 c31 -22 27 -34 -12 -34 -30 0
-34 3 -32 25 1 29 13 31 44 9z m130 -34 c44 0 68 -13 57 -30 -12 -19 -115 -7
-131 15 -21 28 -17 36 12 25 14 -6 42 -10 62 -10z m-262 0 c8 0 14 -4 14 -9 0
-15 -32 -22 -46 -10 -11 9 -14 8 -14 -5 0 -20 -23 -21 -40 -1 -10 12 -10 16 1
19 8 2 21 7 29 9 8 3 21 4 28 1 8 -2 20 -4 28 -4z m74 -45 c0 -17 -36 -20 -45
-5 -4 6 -4 18 -1 26 4 12 10 13 26 4 11 -6 20 -17 20 -25z m398 9 c6 -2 12
-10 12 -19 0 -11 -11 -15 -41 -15 -47 0 -79 14 -79 35 0 12 10 13 48 9 26 -3
53 -7 60 -10z m-458 -19 c0 -8 -6 -15 -14 -15 -17 0 -28 14 -19 24 12 12 33 6
33 -9z m-50 -10 c0 -8 -4 -15 -10 -15 -5 0 -10 7 -10 15 0 8 5 15 10 15 6 0
10 -7 10 -15z m-20 -34 c0 -11 -3 -11 -15 -1 -12 10 -15 10 -15 -4 0 -19 -11
-21 -28 -4 -17 17 -15 28 7 28 11 0 23 5 27 11 8 13 24 -7 24 -30z m320 14 c0
-19 -24 -29 -47 -21 -14 6 -14 8 3 21 25 19 44 19 44 0z m70 4 c0 -5 5 -7 10
-4 6 4 17 2 24 -4 8 -7 49 -13 92 -16 81 -4 157 -25 152 -41 -2 -5 -5 -8 -8
-7 -3 1 -6 -10 -5 -25 0 -23 -5 -27 -32 -30 -38 -4 -42 7 -13 33 25 23 19 31
-10 13 -18 -11 -23 -11 -36 6 -8 11 -14 14 -14 8 0 -7 -12 -12 -26 -12 -14 0
-23 -4 -20 -9 9 -15 -22 -33 -44 -26 -26 8 -26 21 0 28 13 3 20 13 19 29 -1
17 -3 18 -6 6 -4 -16 -22 -23 -46 -19 -4 1 -7 -7 -5 -16 2 -14 -5 -19 -29 -21
-36 -4 -45 12 -13 21 11 3 20 13 20 22 0 10 8 24 18 31 18 14 18 15 -57 18
-37 2 -39 26 -2 26 17 0 31 -5 31 -11z m-132 -47 c3 -16 -2 -22 -15 -22 -31 0
-45 21 -25 36 22 17 36 12 40 -14z m-68 -13 c0 -14 -7 -19 -25 -19 -30 0 -31
4 -7 28 20 22 32 19 32 -9z m200 17 c0 -17 -26 -39 -38 -32 -6 3 -12 -4 -15
-15 -9 -32 -51 -22 -55 14 -3 23 0 27 22 27 14 0 28 5 31 10 9 15 55 12 55 -4z
m-268 -30 c16 -21 16 -25 2 -30 -8 -3 -24 -1 -35 4 -16 9 -17 14 -6 30 15 25
18 25 39 -4z m-42 -48 c0 -5 -9 -4 -20 2 -21 11 -25 22 -13 34 8 7 33 -21 33
-36z m170 12 c0 -6 -11 -10 -25 -10 -23 0 -34 18 -19 33 9 8 44 -11 44 -23z
m324 1 c9 -14 -21 -33 -43 -26 -27 8 -16 35 14 35 13 0 26 -4 29 -9z m-391
-16 c-4 -15 -36 -12 -41 3 -3 9 3 13 19 10 13 -1 23 -7 22 -13z m166 -11 c56
-3 78 -14 67 -33 -15 -23 -76 -9 -76 18 0 12 -2 13 -9 3 -18 -29 -71 -18 -71
15 0 11 5 13 18 8 9 -4 41 -9 71 -11z m410 -10 c36 -30 55 -60 46 -74 -8 -12
-55 18 -55 35 0 7 -9 24 -21 39 -26 33 -10 34 30 0z m-621 4 c7 -7 12 -16 12
-20 0 -13 -37 -9 -49 5 -20 24 14 38 37 15z m100 -15 c-4 -20 -18 -26 -37 -14
-18 12 -5 31 20 31 14 0 19 -6 17 -17z m270 -2 c3 -10 -2 -11 -19 -6 -39 12
-48 27 -15 23 16 -2 31 -9 34 -17z m229 -41 c52 -32 69 -85 23 -73 -14 4 -20
0 -20 -11 0 -21 -4 -20 -66 9 -34 16 -58 35 -67 55 -9 16 -14 30 -13 30 1 0
21 -9 44 -20 22 -11 46 -20 52 -20 14 0 13 23 -2 38 -20 20 12 15 49 -8z
m-251 -48 c107 -56 186 -104 180 -110 -9 -8 -125 38 -177 69 -26 16 -54 41
-63 54 -9 14 -15 25 -14 25 2 0 35 -17 74 -38z m171 -42 c47 -27 54 -40 23
-40 -44 0 -160 77 -160 106 0 11 13 7 48 -13 26 -16 66 -39 89 -53z m-222 17
c127 -67 149 -81 139 -84 -6 -2 -24 2 -40 8 -16 7 -35 13 -43 15 -21 4 -164
66 -175 76 -6 5 -3 8 7 8 11 0 14 5 10 16 -6 17 2 14 102 -39z"/>
<path d="M1445 1249 c55 -41 155 -150 176 -192 23 -45 57 -87 71 -87 4 0 8 8
8 18 0 45 -162 218 -245 262 l-40 21 30 -22z"/>
<path d="M862 930 c7 -11 19 -22 28 -25 8 -4 4 5 -9 19 -29 31 -36 33 -19 6z"/>
<path d="M809 702 c37 -47 150 -125 170 -117 8 3 29 1 48 -6 68 -22 56 0 -20
35 -81 37 -94 41 -89 24 3 -12 -66 41 -99 77 -37 39 -44 29 -10 -13z"/>
<path d="M340 632 c-43 -21 -58 -58 -41 -100 12 -28 64 -62 77 -50 2 3 -9 11
-26 18 -56 23 -49 96 11 121 24 9 33 9 55 -6 21 -14 25 -23 22 -51 -4 -31 -3
-32 13 -18 15 13 15 18 3 44 -27 53 -64 67 -114 42z"/>
<path d="M1871 603 c-39 -46 -53 -71 -31 -58 14 8 108 -61 112 -82 4 -21 65
58 75 96 7 27 -20 54 -47 46 -9 -3 -19 4 -25 18 -16 37 -40 31 -84 -20z m67 2
c4 -19 -16 -65 -29 -65 -4 0 -16 8 -28 18 l-22 17 27 28 c28 30 47 31 52 2z
m67 -35 c7 -23 -18 -70 -38 -70 -6 0 -21 7 -31 15 -19 14 -19 15 0 37 37 44
59 50 69 18z"/>
<path d="M485 528 c5 -13 -54 -76 -88 -95 -17 -9 -16 -10 4 -29 12 -10 19 -13
15 -6 -9 16 20 52 41 52 12 0 14 -10 8 -49 -4 -30 -2 -57 4 -68 8 -15 10 -9
11 28 0 54 6 62 31 46 14 -9 24 -9 37 -1 29 19 25 43 -13 89 -35 43 -60 59
-50 33z m49 -47 c10 -11 16 -28 14 -38 -5 -26 -41 -28 -63 -3 -17 19 -17 21 0
40 22 25 28 25 49 1z"/>
<path d="M1802 520 c-7 -11 -8 -19 -3 -18 18 5 91 -64 91 -86 0 -27 -18 -46
-43 -46 -24 0 -97 59 -97 78 0 12 -4 12 -20 -3 -20 -18 -20 -18 8 -32 15 -8
38 -25 53 -39 46 -44 109 -21 109 40 0 20 -12 39 -39 65 -21 20 -40 42 -42 49
-3 8 -8 5 -17 -8z"/>
<path d="M606 407 c6 -17 -73 -120 -86 -112 -17 11 -11 -7 8 -21 22 -17 29
-17 29 -1 0 20 66 107 81 107 17 0 7 17 -18 30 -15 8 -18 7 -14 -3z"/>
<path d="M1629 360 c-17 -14 -20 -20 -9 -20 19 -1 93 -97 85 -110 -12 -20 11
-8 49 24 36 31 38 35 28 62 l-10 29 -1 -32 c-1 -21 -9 -37 -23 -47 -20 -15
-23 -13 -60 37 -21 28 -36 57 -34 64 7 18 2 16 -25 -7z"/>
<path d="M674 343 c-29 -6 -52 -33 -60 -71 -5 -26 -1 -36 24 -62 29 -29 74
-40 86 -21 3 4 -5 6 -18 4 -15 -3 -33 4 -51 19 -22 20 -27 30 -21 51 20 81
125 89 127 9 l0 -27 11 23 c10 20 8 27 -13 46 -27 26 -53 35 -85 29z"/>
<path d="M1535 312 c-40 -21 -54 -41 -55 -80 0 -43 38 -82 80 -82 35 0 80 38
79 67 0 15 -2 14 -9 -4 -5 -12 -20 -29 -34 -38 -20 -14 -29 -14 -48 -4 -34 18
-47 40 -48 77 0 41 35 62 75 44 29 -13 33 -2 8 20 -16 13 -21 13 -48 0z"/>
<path d="M818 283 c10 -7 8 -22 -8 -68 -11 -33 -26 -62 -32 -66 -15 -9 -11
-14 19 -23 18 -6 22 -4 17 8 -6 16 12 56 26 56 14 0 29 -64 16 -72 -6 -4 2
-11 17 -17 38 -15 37 -15 21 17 -7 16 -17 42 -20 59 -5 26 -2 31 23 41 15 6
37 13 48 15 18 4 18 5 -5 14 -18 8 -26 7 -28 -2 -3 -12 -71 -49 -79 -42 -8 8
17 57 29 57 18 0 -3 17 -32 25 -15 4 -20 3 -12 -2z"/>
<path d="M988 234 c9 -4 11 -22 6 -67 -4 -34 -11 -67 -15 -73 -6 -8 9 -13 52
-18 52 -5 64 -3 75 12 20 25 17 38 -4 19 -10 -10 -35 -17 -55 -17 -36 0 -37 1
-37 35 0 41 20 47 44 13 16 -22 16 -21 15 17 0 22 -3 34 -6 28 -2 -7 -16 -13
-30 -13 -19 0 -24 4 -19 16 3 9 6 22 6 31 0 18 56 9 83 -15 18 -16 23 -7 8 17
-5 8 -33 15 -72 17 -35 2 -58 1 -51 -2z"/>
<path d="M1225 230 c-48 -4 -61 -9 -63 -24 -4 -17 -3 -18 19 -2 13 9 27 16 32
16 5 0 7 -34 5 -75 l-3 -75 30 0 c25 1 27 2 13 11 -14 8 -18 24 -18 74 0 58 2
65 20 65 10 0 24 -8 29 -17 8 -14 10 -15 11 -3 0 29 -15 35 -75 30z"/>
</g>
</svg>
