<?xml version="1.0" encoding="UTF-8"?> <!-- Generator: Adobe Illustrator 19.0.0, SVG Export Plug-In . SVG Version: 6.00 Build 0) --> <svg xmlns="http://www.w3.org/2000/svg" xmlns:xlink="http://www.w3.org/1999/xlink" version="1.1" id="Capa_1" x="0px" y="0px" viewBox="0 0 512 512" style="enable-background:new 0 0 512 512;" xml:space="preserve"> <g> <g> <path d="M408.307,368.742c-17.396,0-31.549,14.152-31.549,31.548v16.032c0,13.545-11.02,24.564-24.564,24.564 s-24.564-11.02-24.564-24.564v-72.145c0-7.28-3.324-13.798-8.533-18.117c7.105-1.964,11.904-7.626,11.847-14.232 c-0.144-16.256-0.935-37.802-2.494-61.982l60.183-40.981c19.091-13,24.889-34.758,14.099-52.911 c-15.418-25.939-39.192-63.537-64.896-95.349C304.882,19.824,278.231,0,256.358,0h-0.392c-21.873,0-48.523,19.824-81.476,60.605 c-25.704,31.812-49.479,69.41-64.896,95.349c-10.79,18.153-4.992,39.911,14.099,52.911l59.772,40.701 c-1.506,23.326-2.32,44.779-2.475,62.262c-0.059,6.62,4.76,12.296,11.895,14.247c-5.198,4.32-8.515,10.831-8.515,18.102v72.145 c0,13.545-11.02,24.564-24.564,24.564c-13.544,0-24.564-11.02-24.564-24.564V400.29c0-17.396-14.152-31.548-31.549-31.548 c-4.143,0-7.5,3.357-7.5,7.5s3.357,7.5,7.5,7.5c9.125,0,16.549,7.423,16.549,16.548v24.049c0,30.656,24.94,55.597,55.597,55.597 c16.005,0,30.443-6.807,40.597-17.668v10.168c0,13.545-11.02,24.564-24.564,24.564c-4.143,0-7.5,3.357-7.5,7.5s3.357,7.5,7.5,7.5 h16.032c20.519,0,38.463-11.181,48.097-27.763C265.633,500.819,283.578,512,304.096,512h16.032c4.143,0,7.5-3.357,7.5-7.5 s-3.357-7.5-7.5-7.5c-13.545,0-24.564-11.02-24.564-24.564v-10.168c10.153,10.861,24.591,17.668,40.597,17.668 c30.656,0,55.597-24.94,55.597-55.597V400.29c0-9.125,7.424-16.548,16.549-16.548c4.143,0,7.5-3.357,7.5-7.5 S412.449,368.742,408.307,368.742z M255.537,15.013c0.142-0.003,0.287-0.013,0.428-0.013c4.259,0,15.516,4.184,28.028,42.935 c1.271,3.941,5.5,6.102,9.441,4.833c3.941-1.273,6.105-5.5,4.832-9.442c-2.609-8.081-5.333-15.221-8.18-21.442 c27.436,23.053,62.353,68.82,99.749,131.734c6.755,11.364,2.968,24.258-9.647,32.848l-52.958,36.061 c-3.623-47.558-10.067-102.278-20.152-146.534c-0.92-4.039-4.943-6.567-8.979-5.646c-4.039,0.92-6.566,4.94-5.646,8.979 c16.353,71.76,22.986,171.708,23.483,221.933c-0.24,0.145-0.643,0.326-1.223,0.437c-12.256,2.328-35.301,7.434-51.942,15.479 c-4.07,1.968-9.54,1.967-13.61,0c-16.643-8.046-39.688-13.152-51.943-15.479c-0.579-0.11-0.981-0.291-1.222-0.437 c0.458-46.833,5.643-121.924,16.238-184.879c5.859-34.812,12.712-62.236,20.367-81.511 C242.592,19.715,251.106,15.272,255.537,15.013z M312.629,344.178c0,4.705-3.827,8.532-8.532,8.532s-8.532-3.827-8.532-8.532 s3.827-8.532,8.532-8.532C308.802,335.646,312.629,339.473,312.629,344.178z M216.436,344.178c0,4.705-3.827,8.532-8.532,8.532 c-4.705,0-8.532-3.827-8.532-8.532s3.827-8.532,8.532-8.532C212.609,335.646,216.436,339.473,216.436,344.178z M184.689,232.25 l-52.552-35.784c-12.615-8.59-16.402-21.484-9.647-32.848c37.097-62.413,71.757-107.955,99.091-131.184 c-0.987,2.187-1.959,4.485-2.918,6.898c-8.045,20.256-15.184,48.705-21.218,84.558 C191.606,158.573,187.395,196.882,184.689,232.25z M336.161,464.936c-22.385,0-40.597-18.212-40.597-40.597V400.29v-16.032 c0-4.143-3.357-7.5-7.5-7.5s-7.5,3.357-7.5,7.5v16.032v72.146c0,7.472,2.081,14.464,5.694,20.432 c-13.467-6.614-22.759-20.475-22.759-36.464V400.29c0-4.143-3.357-7.5-7.5-7.5c-4.143,0-7.5,3.357-7.5,7.5v56.113 c0,15.989-9.291,29.85-22.759,36.464c3.613-5.968,5.694-12.96,5.694-20.432V400.29v-16.032c0-4.143-3.357-7.5-7.5-7.5 s-7.5,3.357-7.5,7.5v16.032v24.049c0,22.385-18.212,40.597-40.597,40.597c-10.587,0-20.24-4.073-27.476-10.735 c3.624,1.097,7.466,1.687,11.443,1.687c21.815,0,39.564-17.749,39.564-39.564v-50.22c2.647,1.034,5.523,1.608,8.532,1.608 c12.976,0,23.532-10.557,23.532-23.532c0-3.071-0.598-6.004-1.673-8.696c4.537,1.56,8.926,3.292,12.87,5.198 c4.113,1.989,8.723,2.983,13.335,2.982c4.61,0,9.222-0.994,13.334-2.982c3.966-1.917,8.382-3.658,12.946-5.224 c-1.082,2.699-1.683,5.641-1.683,8.722c0,12.976,10.557,23.532,23.532,23.532c3.009,0,5.885-0.574,8.532-1.608v50.22 c0,21.815,17.749,39.564,39.564,39.564c3.978,0,7.819-0.59,11.443-1.687C356.401,460.862,346.747,464.936,336.161,464.936z"></path> </g> </g> <g> </g> <g> </g> <g> </g> <g> </g> <g> </g> <g> </g> <g> </g> <g> </g> <g> </g> <g> </g> <g> </g> <g> </g> <g> </g> <g> </g> <g> </g> </svg> 